<svg width="70" height="60" viewBox="0 0 70 60" fill="none" xmlns="http://www.w3.org/2000/svg"><path d="M0.203941 48.8325C1.46351 59.138 13.6376 60 25.9986 60H43.978C55.2319 60 68.3322 58.7342 69.755 48.8635L70 47.1642H0L0.203941 48.8325V48.8325Z" fill="white"/><path d="M70 30.5564H0V40.0093H70V30.5564Z" fill="white"/><path d="M69.8806 21.6847C68.8358 7.72195 49.3087 0 36.2103 0H33.7906C20.6925 0 1.16509 7.72195 0.120043 21.6847L0 23.2836H70L69.8806 21.6847ZM21.5435 13.108C19.1639 15.4356 14.7726 14.9143 14.7726 14.9143C14.7726 14.9143 14.2394 10.619 16.6193 8.29147C18.9988 5.96365 23.3901 6.48518 23.3901 6.48518C23.3901 6.48518 23.923 10.7802 21.5435 13.108ZM35.0005 18.3558C35.0005 18.3558 31.5183 15.6874 31.5183 12.3955C31.5183 9.10357 35.0005 6.43511 35.0005 6.43511C35.0005 6.43511 38.4826 9.10357 38.4826 12.3955C38.4826 15.6874 35.0005 18.3558 35.0005 18.3558ZM55.2286 14.9143C55.2286 14.9143 50.8373 15.4359 48.4578 13.108C46.0782 10.7802 46.6111 6.48518 46.6111 6.48518C46.6111 6.48518 51.0024 5.96365 53.382 8.29147C55.7618 10.619 55.2286 14.9143 55.2286 14.9143Z" fill="white"/></svg>
